<svg width="73" height="33" viewBox="0 0 73 33" fill="none" xmlns="http://www.w3.org/2000/svg">
<path d="M18.768 0.367998C18.9213 0.367998 19.044 0.429331 19.136 0.551998C19.2587 0.643999 19.32 0.766666 19.32 0.919999V5.382C19.32 5.53533 19.2587 5.67333 19.136 5.796C19.044 5.888 18.9213 5.934 18.768 5.934H13.018C12.8647 5.934 12.788 6.01067 12.788 6.164V32.016C12.788 32.1693 12.7267 32.3073 12.604 32.43C12.512 32.522 12.3893 32.568 12.236 32.568H6.854C6.70067 32.568 6.56267 32.522 6.44 32.43C6.348 32.3073 6.302 32.1693 6.302 32.016V6.164C6.302 6.01067 6.22533 5.934 6.072 5.934H0.552C0.398667 5.934 0.260667 5.888 0.138 5.796C0.046 5.67333 0 5.53533 0 5.382V0.919999C0 0.766666 0.046 0.643999 0.138 0.551998C0.260667 0.429331 0.398667 0.367998 0.552 0.367998H18.768Z" fill="#F5F5F5"/>
<path d="M22.8548 32.568C22.7015 32.568 22.5635 32.522 22.4408 32.43C22.3488 32.3073 22.3028 32.1693 22.3028 32.016V0.919999C22.3028 0.766666 22.3488 0.643999 22.4408 0.551998C22.5635 0.429331 22.7015 0.367998 22.8548 0.367998H28.2368C28.3901 0.367998 28.5128 0.429331 28.6048 0.551998C28.7275 0.643999 28.7888 0.766666 28.7888 0.919999V26.772C28.7888 26.9253 28.8655 27.002 29.0188 27.002H38.6788C38.8321 27.002 38.9548 27.0633 39.0468 27.186C39.1695 27.278 39.2308 27.4007 39.2308 27.554V32.016C39.2308 32.1693 39.1695 32.3073 39.0468 32.43C38.9548 32.522 38.8321 32.568 38.6788 32.568H22.8548Z" fill="#F5F5F5"/>
<path d="M50.4031 32.936C47.6431 32.936 45.4197 32.1233 43.7331 30.498C42.0771 28.842 41.2491 26.634 41.2491 23.874V8.97C41.2491 6.24066 42.0771 4.06333 43.7331 2.438C45.4197 0.812666 47.6431 0 50.4031 0C53.1937 0 55.4171 0.812666 57.0731 2.438C58.7597 4.06333 59.6031 6.24066 59.6031 8.97V9.476C59.6031 9.62933 59.5417 9.76733 59.4191 9.89C59.3271 9.982 59.2044 10.028 59.0511 10.028L53.6691 10.258C53.3011 10.258 53.1171 10.0893 53.1171 9.752V8.556C53.1171 7.66667 52.8717 6.946 52.3811 6.394C51.8904 5.842 51.2311 5.566 50.4031 5.566C49.6057 5.566 48.9617 5.842 48.4711 6.394C47.9804 6.946 47.7351 7.66667 47.7351 8.556V24.426C47.7351 25.3153 47.9804 26.036 48.4711 26.588C48.9617 27.1093 49.6057 27.37 50.4031 27.37C51.2311 27.37 51.8904 27.1093 52.3811 26.588C52.8717 26.036 53.1171 25.3153 53.1171 24.426V23.184C53.1171 23.0307 53.1631 22.908 53.2551 22.816C53.3777 22.6933 53.5157 22.632 53.6691 22.632L59.0511 22.862C59.2044 22.862 59.3271 22.9233 59.4191 23.046C59.5417 23.138 59.6031 23.2607 59.6031 23.414V23.874C59.6031 26.634 58.7597 28.842 57.0731 30.498C55.3864 32.1233 53.1631 32.936 50.4031 32.936Z" fill="#F5F5F5"/>
<path d="M65.896 25.568H72.896V32.568H65.896V25.568Z" fill="#F5F5F5"/>
</svg>
